<?xml version="1.0" encoding="utf-8"?>
<!-- Generator: Adobe Illustrator 21.0.0, SVG Export Plug-In . SVG Version: 6.00 Build 0)  -->
<svg version="1.1" id="Capa_1" xmlns="http://www.w3.org/2000/svg" xmlns:xlink="http://www.w3.org/1999/xlink" x="0px" y="0px"
	 viewBox="0 0 745.5 166.3" style="enable-background:new 0 0 745.5 166.3;" xml:space="preserve">
<style type="text/css">
	.st0{fill:#FFFFFF;}
	.st1{font-family:'SourceSansPro-Regular';}
	.st2{font-size:57px;}
	.st3{letter-spacing:-1;}
</style>
<title>Personal logo</title>
<text transform="matrix(1 0 0 1 272.25 102.05)" class="st0 st1 st2">Gabriel De And</text>
<text transform="matrix(1 0 0 1 624.22 102.05)" class="st0 st1 st2 st3">r</text>
<text transform="matrix(1 0 0 1 642.63 101.05)" class="st0 st1 st2">ade</text>
<path class="st0" d="M225.3,137c-0.8-1.4-0.6-3.1,0.4-4.3c12.9-14.8,19.9-33.9,19.6-53.5c-0.6-43.5-37.3-79-80.8-79h-17.1
	c-2.1,0-3.7,1.7-3.7,3.7c0,0,0,0,0,0v11.7c0,2.1,1.7,3.7,3.7,3.7c0,0,0,0,0,0h21.2c22.7-0.1,43.2,13.2,52.3,34
	c9.5,21.9,6.7,43.3-3.5,59.7c-1.1,1.8-3.4,2.3-5.2,1.2c-0.5-0.3-0.9-0.7-1.1-1.1l-23.2-35c-1.9-2.8-5-4.5-8.4-4.5H84.2
	c-2.1,0-3.7,1.7-3.7,3.7v11.9c0,2.1,1.7,3.7,3.7,3.7h57.4c2.1,0,3.7,1.7,3.7,3.8c0,0.3,0,0.6-0.1,0.8C136,138.1,88,163.9,42.1,133.9
	c-3.9-2.5-7.2-5.8-9.7-9.6c-33.5-51,2.3-104.9,50.7-104.9l16.9-0.2h5.3c2.1,0,3.7-1.7,3.7-3.7c0,0,0,0,0,0V3.8
	c0-2.1-1.7-3.7-3.7-3.7c0,0,0,0,0,0H100H84.3C38.4-1,0.4,35.5-0.5,81.4s35.5,83.9,81.4,84.8c0.8,0,1.5,0,2.3,0
	c24.5,0.1,47.7-10.9,63.2-29.8l0,0c0,0,16.4-17.3,18.6-40.5c0.1-1.6,1.4-3,3-3.3c0.8-0.1,1.6,0.1,2.3,0.4c0.7,0.3,1.3,0.7,1.8,1.4
	l36.9,52.7l0.2,0.3l7.9,13.6c1,1.8,3.3,2.4,5.1,1.4l10.3-5.7c1.8-1,2.5-3.3,1.5-5.1c0,0,0,0,0-0.1L225.3,137z"/>
</svg>
